<svg xmlns="http://www.w3.org/2000/svg" width="65" height="65" fill="none" xmlns:v="https://vecta.io/nano"><rect width="65" height="65" rx="12" fill="#1a334f"/><path d="M19.736 36.78H12.44l-1.344 3.72H8.792l6.048-16.632h2.52L23.384 40.5H21.08l-1.344-3.72zm-.624-1.776l-3.024-8.448-3.024 8.448h6.048zm6.092-2.88c0-1.632.368-3.096 1.104-4.392.736-1.312 1.736-2.336 3-3.072 1.28-.736 2.696-1.104 4.248-1.104 1.824 0 3.416.44 4.776 1.32s2.352 2.128 2.976 3.744h-2.616c-.464-1.008-1.136-1.784-2.016-2.328-.864-.544-1.904-.816-3.12-.816-1.168 0-2.216.272-3.144.816s-1.656 1.32-2.184 2.328c-.528.992-.792 2.16-.792 3.504 0 1.328.264 2.496.792 3.504.528.992 1.256 1.76 2.184 2.304s1.976.816 3.144.816c1.216 0 2.256-.264 3.12-.792.88-.544 1.552-1.32 2.016-2.328h2.616c-.624 1.6-1.616 2.84-2.976 3.72-1.36.864-2.952 1.296-4.776 1.296-1.552 0-2.968-.36-4.248-1.08a8.07 8.07 0 0 1-3-3.048c-.736-1.296-1.104-2.76-1.104-4.392zm24.659 8.544c-1.104 0-2.096-.192-2.976-.576-.864-.4-1.544-.944-2.04-1.632-.496-.704-.752-1.512-.768-2.424h2.328c.08.784.4 1.448.96 1.992.576.528 1.408.792 2.496.792 1.04 0 1.856-.256 2.448-.768a2.55 2.55 0 0 0 .912-2.016c0-.64-.176-1.16-.528-1.56s-.792-.704-1.32-.912-1.24-.432-2.136-.672c-1.104-.288-1.992-.576-2.664-.864-.656-.288-1.224-.736-1.704-1.344-.464-.624-.696-1.456-.696-2.496 0-.912.232-1.72.696-2.424s1.112-1.248 1.944-1.632c.848-.384 1.816-.576 2.904-.576 1.568 0 2.848.392 3.84 1.176 1.008.784 1.576 1.824 1.704 3.12h-2.4c-.08-.64-.416-1.2-1.008-1.68-.592-.496-1.376-.744-2.352-.744-.912 0-1.656.24-2.232.72-.576.464-.864 1.12-.864 1.968 0 .608.168 1.104.504 1.488a3.58 3.58 0 0 0 1.272.888c.512.192 1.224.416 2.136.672 1.104.304 1.992.608 2.664.912.672.288 1.248.744 1.728 1.368.48.608.72 1.44.72 2.496 0 .816-.216 1.584-.648 2.304s-1.072 1.304-1.92 1.752-1.848.672-3 .672z" fill="#fff"/></svg>