<svg viewBox="0 0 18 18" fill="none" xmlns="http://www.w3.org/2000/svg">
<path d="M9.00033 13.166C9.23644 13.166 9.43449 13.086 9.59449 12.926C9.75449 12.766 9.83422 12.5682 9.83366 12.3327V8.99935C9.83366 8.76324 9.75366 8.56518 9.59366 8.40518C9.43366 8.24518 9.23588 8.16546 9.00033 8.16602C8.76422 8.16602 8.56616 8.24602 8.40616 8.40602C8.24616 8.56602 8.16644 8.76379 8.16699 8.99935V12.3327C8.16699 12.5688 8.24699 12.7668 8.40699 12.9269C8.56699 13.0869 8.76477 13.1666 9.00033 13.166ZM9.00033 6.49935C9.23644 6.49935 9.43449 6.41935 9.59449 6.25935C9.75449 6.09935 9.83422 5.90157 9.83366 5.66602C9.83366 5.4299 9.75366 5.23185 9.59366 5.07185C9.43366 4.91185 9.23588 4.83213 9.00033 4.83268C8.76422 4.83268 8.56616 4.91268 8.40616 5.07268C8.24616 5.23268 8.16644 5.43046 8.16699 5.66602C8.16699 5.90213 8.24699 6.10018 8.40699 6.26018C8.56699 6.42018 8.76477 6.49991 9.00033 6.49935ZM9.00033 17.3327C7.84755 17.3327 6.76422 17.1138 5.75033 16.676C4.73644 16.2382 3.85449 15.6446 3.10449 14.8952C2.35449 14.1452 1.76088 13.2632 1.32366 12.2493C0.886437 11.2355 0.667548 10.1521 0.666992 8.99935C0.666992 7.84657 0.885881 6.76324 1.32366 5.74935C1.76144 4.73546 2.35505 3.85352 3.10449 3.10352C3.85449 2.35352 4.73644 1.7599 5.75033 1.32268C6.76422 0.88546 7.84755 0.666571 9.00033 0.666016C10.1531 0.666016 11.2364 0.884905 12.2503 1.32268C13.2642 1.76046 14.1462 2.35407 14.8962 3.10352C15.6462 3.85352 16.24 4.73546 16.6778 5.74935C17.1156 6.76324 17.3342 7.84657 17.3337 8.99935C17.3337 10.1521 17.1148 11.2355 16.677 12.2493C16.2392 13.2632 15.6456 14.1452 14.8962 14.8952C14.1462 15.6452 13.2642 16.2391 12.2503 16.6769C11.2364 17.1146 10.1531 17.3332 9.00033 17.3327Z" fill="currentColor"/>
</svg>
