<svg width="20" height="20" viewBox="0 0 20 20" fill="none" xmlns="http://www.w3.org/2000/svg">
<path fill-rule="evenodd" clip-rule="evenodd" d="M14.3344 0H5.6654C2.26782 0 0.000396729 2.4326 0.000396729 5.916V14.084C0.000396729 17.5707 2.26177 20 5.6654 20H14.3334C17.738 20 20.0004 17.5707 20.0004 14.084V5.916C20.0004 2.4295 17.7382 0 14.3344 0ZM5.6654 1.5H14.3344C16.8849 1.5 18.5004 3.23496 18.5004 5.916V14.084C18.5004 16.7652 16.8848 18.5 14.3334 18.5H5.6654C3.11516 18.5 1.5004 16.7653 1.5004 14.084V5.916C1.5004 3.23837 3.12074 1.5 5.6654 1.5ZM14.0902 7.09667C13.7973 6.80378 13.3225 6.80378 13.0296 7.09667L8.813 11.3118L6.97011 9.46956L6.88598 9.39696C6.59232 9.17916 6.17567 9.20346 5.90945 9.46978C5.61662 9.76274 5.61672 10.2376 5.90968 10.5304L8.28368 12.9034L8.3678 12.976C8.66141 13.1938 9.078 13.1696 9.34423 12.9033L14.0902 8.15733L14.1628 8.07321C14.3807 7.7796 14.3565 7.36294 14.0902 7.09667Z" fill="#F1F1F1"/>
</svg>
