<svg viewBox="0 0 303 255" fill="none" xmlns="http://www.w3.org/2000/svg">
<path d="M248.603 123.11C248.425 121.958 247.353 121.169 246.205 121.349C245.061 121.529 244.277 122.612 244.456 123.764C244.758 125.733 245.14 131.898 243.026 134.378C242.569 134.915 242.016 135.236 241.322 135.364L241.514 123.622C241.542 121.917 240.178 120.519 238.48 120.519C236.776 120.519 235.404 121.934 235.446 123.65L235.995 145.934C235.267 145.816 234.693 145.494 234.219 144.937C232.105 142.457 232.49 136.292 232.789 134.323C232.968 133.171 232.185 132.088 231.04 131.908C229.892 131.728 228.82 132.517 228.642 133.669C228.49 134.638 227.277 143.273 231.027 147.681C232.315 149.196 234.061 150.057 236.099 150.189L236.336 159.89H240.916L241.25 139.623C243.243 139.468 244.947 138.613 246.215 137.122C249.968 132.714 248.755 124.082 248.603 123.11Z" fill="#BDBDBD"/>
<path d="M53.0574 142.003C52.944 141.27 52.2601 140.765 51.5282 140.882C50.7996 140.997 50.2979 141.685 50.4148 142.422C50.6072 143.678 50.8512 147.608 49.5042 149.189C49.2121 149.531 48.8616 149.736 48.4183 149.819L48.542 142.332C48.5592 141.246 47.6898 140.353 46.6073 140.353C45.5214 140.353 44.6486 141.256 44.6726 142.349L45.0231 156.555C44.5592 156.478 44.1915 156.274 43.8926 155.921C42.5455 154.34 42.7895 150.41 42.9819 149.154C43.0953 148.421 42.5971 147.729 41.8685 147.615C41.1366 147.501 40.4528 148.002 40.3394 148.736C40.2432 149.355 39.47 154.856 41.8583 157.669C42.6796 158.634 43.7929 159.184 45.0919 159.267L45.2431 165.449H48.164L48.377 152.531C49.6451 152.431 50.7344 151.887 51.5419 150.936C53.9267 148.123 53.1536 142.619 53.0574 142.003Z" fill="#BDBDBD"/>
<path d="M151.028 254.892C234.439 254.892 302.056 230.792 302.056 201.063C302.056 171.334 234.439 147.234 151.028 147.234C67.6176 147.234 0 171.334 0 201.063C0 230.792 67.6176 254.892 151.028 254.892Z" fill="url(#paint0_linear_684_34415)"/>
<path d="M175.138 135.814C175.138 135.814 175.048 140.993 175.134 141.512C175.22 142.031 173.121 145.069 172.261 144.934C171.402 144.799 169.684 144.512 169.437 144.224C169.189 143.937 169.299 143.256 169.385 142.636C169.475 142.014 170.117 136.374 170.117 136.087C170.117 135.797 174.182 135.029 175.138 135.814Z" fill="#FFD3BC"/>
<path d="M171.804 141.218C170.729 141.803 170.128 143.581 169.973 143.602C169.822 143.622 169.536 143.581 169.536 143.404C169.536 143.228 169.581 142.636 169.385 142.636C169.189 142.636 168.969 143.602 168.928 145.01C168.884 146.418 168.389 149.77 168.928 150.196C169.268 150.462 172.378 152.109 172.464 152.327C172.55 152.545 172.399 154.084 172.66 154.327C172.921 154.569 173.533 155.16 174.014 155.185C174.495 155.205 177.265 155.492 178.578 155.185C179.887 154.877 181.547 154.24 181.591 154.064C181.636 153.887 181.265 150.151 180.849 149.691C180.433 149.23 177.444 145.096 177.203 144.723C176.962 144.349 176.787 143.449 176.787 142.92C176.787 142.394 176.313 141.242 175.43 140.965C174.512 140.675 172.612 140.775 171.804 141.218Z" fill="url(#paint1_linear_684_34415)"/>
<path d="M143.774 138.81C143.774 138.81 143.774 141.827 143.688 142.346C143.602 142.865 145.702 145.902 146.561 145.767C147.42 145.632 149.138 145.345 149.386 145.058C149.633 144.771 149.523 144.089 149.437 143.47C149.348 142.851 148.795 139.37 148.795 139.083C148.795 138.796 144.729 138.021 143.774 138.81Z" fill="#FFD3BC"/>
<path d="M146.54 72.2427C145.324 76.6918 143.025 91.9384 143.025 99.349C143.025 106.76 142.29 125.653 142.29 128.521C142.29 131.392 141.984 138.516 142.719 138.886C143.454 139.256 145.176 140.37 147.509 140C149.843 139.63 150.458 138.145 150.52 136.786C150.581 135.426 151.135 125.656 151.688 121.885C152.241 118.114 154.207 110.838 155.495 106.161C156.784 101.48 159.794 92.0734 160.592 92.108C161.389 92.1426 166.365 112.755 166.777 113.924C167.193 115.094 167.98 131.69 168.031 133.084C168.083 134.478 168.031 135.817 168.901 136.384C169.77 136.952 172.437 138.346 173.818 138.446C175.203 138.55 176.124 136.333 176.378 135.661C176.636 134.99 177.09 112.79 176.925 106.701C176.76 100.612 177.241 89.2538 176.959 85.5519C176.681 81.8501 175.78 73.9137 175.206 72.2427C174.643 70.5717 146.54 72.2427 146.54 72.2427Z" fill="#192B59"/>
<path d="M137.956 20.5106C139.118 19.2132 144.53 13.0689 145.606 12.8509C146.681 12.633 149.296 12.159 149.877 11.5536C150.461 10.9481 152.925 3.15355 151.949 1.7351C150.973 0.316644 147.204 0.717955 146.063 3.13279C144.922 5.54762 144.977 6.81039 143.094 8.47794C141.21 10.1455 133.001 16.9022 132.238 17.5837C131.475 18.2653 132.991 21.5831 134.19 22.1574C135.393 22.7317 137.956 20.5106 137.956 20.5106Z" fill="url(#paint2_linear_684_34415)"/>
<path d="M152.922 22.3827C150.155 22.9674 145.558 23.4622 144.042 23.9569C142.523 24.4516 136.544 26.562 136.589 25.6625C136.633 24.763 139.355 20.8121 138.863 20.4073C138.372 20.0025 135.427 19.5078 134.936 18.8781C134.444 18.2485 133.774 16.7678 133.108 16.9477C132.437 17.1276 124.678 24.4032 125.207 27.1917C126.458 33.7615 144.802 38.5462 145.221 41.4108C145.64 44.2754 143.798 71.745 144.802 72.7552C145.805 73.7654 156.434 77.6437 161.791 77.9792C167.148 78.3148 176.543 76.4362 177.055 75.0178C177.567 73.5993 174.44 46.3062 174.804 46.3062C175.169 46.3062 175.268 54.8965 179.351 57.1176C182.045 58.5845 185.749 57.0726 186.457 56.2631C187.165 55.4535 183.924 44.0332 182.461 40.1792C180.993 36.3286 179.591 28.3679 176.275 25.5449C172.959 22.7218 168.279 23.1992 166.667 22.5384C165.055 21.8742 159.65 22.3516 158.286 22.2063C156.925 22.0645 152.922 22.3827 152.922 22.3827Z" fill="url(#paint3_linear_684_34415)"/>
<path d="M187.478 51.101C187.478 51.101 182.708 52.554 182.337 53.0522C181.966 53.5504 181.302 55.5501 182.337 56.3838C183.371 57.2176 184.505 57.8404 185.732 56.8786C186.959 55.9168 188.076 54.6264 188.783 54.4603C189.491 54.2977 191.612 54.6021 192.502 54.2527C193.392 53.8998 195.079 47.1085 194.398 46.6968C193.715 46.2851 187.478 51.101 187.478 51.101Z" fill="url(#paint4_linear_684_34415)"/>
<path d="M152.942 21.4656C151.403 21.1439 148.43 18.217 148.159 15.2452C147.894 12.3494 145.777 4.20891 153.141 1.15404C160.052 -1.71054 167.165 1.23708 168.186 4.76937C169.141 8.06988 161.028 8.21864 158.055 10.3671C155.083 12.5155 154.88 13.9443 154.138 13.6018C153.392 13.2628 152.942 21.4656 152.942 21.4656Z" fill="#192B59"/>
<path d="M152.815 15.6635C152.719 16.992 152.385 23.4062 152.939 24.3542C153.447 25.2225 154.348 27.7446 157.877 27.6339C161.409 27.5232 163.698 23.9667 163.894 23.5515C164.086 23.1364 163.674 17.9953 163.674 17.1339C163.674 16.2724 158.928 14.2451 157.025 14.3004C155.121 14.3558 152.908 14.4181 152.815 15.6635Z" fill="url(#paint5_linear_684_34415)"/>
<path d="M153.141 15.6844C153.54 15.674 153.069 18.1199 153.791 18.9191C154.513 19.7183 157.653 23.8872 160.976 23.479C163.849 23.1261 163.437 20.6317 163.853 18.5801C164.227 16.7153 165.423 16.5562 165.842 11.6885C166.004 9.80643 166.89 6.85534 165.265 6.31218C163.64 5.76555 157.543 4.3125 156.028 6.31218C154.513 8.31185 154.368 13.1069 153.574 12.4877C152.781 11.8684 151.121 8.85502 150.145 10.488C149.172 12.1244 151.011 15.7466 153.141 15.6844Z" fill="#F2DAD4"/>
<path d="M178.797 40.5731L169.124 52.886C168.622 53.526 169.083 54.467 169.894 54.4532L187.773 54.1487C188.069 54.1453 188.347 54 188.526 53.7612L197.663 41.4691C198.096 40.8879 197.68 40.0576 196.958 40.0645L179.543 40.2098C179.254 40.2064 178.979 40.3413 178.797 40.5731Z" fill="url(#paint6_linear_684_34415)"/>
<path d="M194.093 45.5304C193.151 45.6273 191.783 46.1601 191.783 46.6548C191.783 47.1495 192.88 47.2844 193.182 47.3329C193.484 47.3779 193.883 47.4747 193.77 47.627C193.656 47.7792 193.429 48.5403 192.825 48.4088C192.22 48.2739 189.57 48.2359 189.058 48.2359C188.546 48.2359 187.942 48.5991 187.904 48.9797C187.866 49.3602 187.753 49.4363 187.45 49.4571C187.148 49.4779 186.598 49.7616 186.598 50.2563C186.598 50.751 187.814 51.1973 187.814 51.3737C187.814 51.5502 190.199 53.0136 190.667 53.2869C191.134 53.5602 192.007 54.2522 192.498 54.2522C192.99 54.2522 193.814 53.7817 193.876 53.1001C193.938 52.4186 194.91 51.9238 194.921 51.5883C194.935 51.2527 194.615 51.007 194.649 50.796C194.687 50.5849 195.536 50.2874 195.536 49.7546C195.536 49.2218 195.203 48.5057 195.154 48.2808C195.106 48.0594 194.907 47.5751 195.106 47.5128C195.302 47.4505 195.993 46.807 195.869 46.212C195.745 45.6204 194.526 45.4854 194.093 45.5304Z" fill="#FFD3BC"/>
<path d="M147.018 142.048C148.094 142.633 148.695 144.411 148.85 144.432C149.001 144.453 149.286 144.411 149.286 144.235C149.286 144.059 149.241 143.467 149.437 143.467C149.633 143.467 149.853 144.432 149.894 145.84C149.939 147.248 150.434 150.601 149.894 151.026C149.554 151.293 146.444 152.939 146.358 153.157C146.272 153.379 146.424 154.915 146.162 155.157C145.901 155.399 145.29 155.991 144.809 156.015C144.327 156.036 141.558 156.323 140.245 156.015C138.936 155.707 137.276 155.071 137.231 154.894C137.187 154.718 137.558 150.981 137.974 150.521C138.389 150.061 141.379 145.927 141.62 145.553C141.86 145.179 142.035 144.28 142.035 143.751C142.035 143.225 142.51 142.073 143.393 141.796C144.314 141.509 146.211 141.609 147.018 142.048Z" fill="url(#paint7_linear_684_34415)"/>
<defs>
<linearGradient id="paint0_linear_684_34415" x1="151.028" y1="122.836" x2="151.028" y2="207.364" gradientUnits="userSpaceOnUse">
<stop stop-color="#E5E5E5"/>
<stop offset="0.4764" stop-color="#F4F4F4"/>
<stop offset="1" stop-color="white"/>
</linearGradient>
<linearGradient id="paint1_linear_684_34415" x1="177.541" y1="146.782" x2="169.686" y2="152.696" gradientUnits="userSpaceOnUse">
<stop stop-color="#4E9CFF"/>
<stop offset="0.9844" stop-color="#176AD4"/>
</linearGradient>
<linearGradient id="paint2_linear_684_34415" x1="155.279" y1="13.0356" x2="140.494" y2="11.3968" gradientUnits="userSpaceOnUse">
<stop stop-color="#F2BFAD"/>
<stop offset="1" stop-color="#F2DAD4"/>
</linearGradient>
<linearGradient id="paint3_linear_684_34415" x1="137.596" y1="31.638" x2="188.226" y2="69.76" gradientUnits="userSpaceOnUse">
<stop stop-color="#4E9CFF"/>
<stop offset="0.9844" stop-color="#176AD4"/>
</linearGradient>
<linearGradient id="paint4_linear_684_34415" x1="188.294" y1="53.3159" x2="189.056" y2="66.1525" gradientUnits="userSpaceOnUse">
<stop stop-color="#F2BFAD"/>
<stop offset="0.7043" stop-color="#F2DAD4"/>
</linearGradient>
<linearGradient id="paint5_linear_684_34415" x1="157.196" y1="18.3777" x2="162.138" y2="28.6283" gradientUnits="userSpaceOnUse">
<stop stop-color="#F2BFAD"/>
<stop offset="1" stop-color="#F2DAD4"/>
</linearGradient>
<linearGradient id="paint6_linear_684_34415" x1="180.094" y1="41.1391" x2="188.692" y2="56.851" gradientUnits="userSpaceOnUse">
<stop stop-color="white"/>
<stop offset="1" stop-color="#BDBDBD"/>
</linearGradient>
<linearGradient id="paint7_linear_684_34415" x1="141.283" y1="147.615" x2="149.138" y2="153.528" gradientUnits="userSpaceOnUse">
<stop stop-color="#4E9CFF"/>
<stop offset="0.9844" stop-color="#176AD4"/>
</linearGradient>
</defs>
</svg>
