<svg width="317" height="292" viewBox="0 0 317 292" fill="none" xmlns="http://www.w3.org/2000/svg">
<rect x="19" y="28" width="264" height="264" rx="132" fill="#E9E9E9"/>
<rect x="60" y="88" width="182" height="143" rx="8" fill="white"/>
<rect x="123" y="202" width="59" height="16" rx="8" fill="#AFD6FF"/>
<rect x="112" y="101" width="37" height="10" rx="5" fill="#D9D9D9"/>
<rect x="160" y="147" width="65" height="10" rx="5" fill="#EBEBEB"/>
<rect x="79" y="147" width="65" height="10" rx="5" fill="#D9D9D9"/>
<rect x="112" y="117" width="65" height="10" rx="5" fill="#EBEBEB"/>
<rect x="79" y="165" width="42" height="29" rx="8" fill="#EBEBEB"/>
<rect x="131" y="165" width="42" height="29" rx="8" fill="#EBEBEB"/>
<rect x="183" y="165" width="42" height="29" rx="8" fill="#EBEBEB"/>
<rect x="77" y="101" width="26" height="26" rx="13" fill="#D9D9D9"/>
<path d="M225.887 70.1306C225.887 72.7795 223.742 74.9252 221.097 74.9252C218.453 74.9252 216.307 72.7795 216.307 70.1306C216.307 67.4817 218.453 65.336 221.097 65.336C223.742 65.336 225.887 67.4817 225.887 70.1306Z" stroke="#D9D9D9" stroke-width="2.61276"/>
<path d="M197.887 261.272C197.887 263.921 195.742 266.067 193.097 266.067C190.453 266.067 188.307 263.921 188.307 261.272C188.307 258.624 190.453 256.478 193.097 256.478C195.742 256.478 197.887 258.624 197.887 261.272Z" stroke="#D9D9D9" stroke-width="2.61276"/>
<path d="M16.0325 199.366C17.356 199.154 18.4124 200.455 17.9342 201.708L14.7044 210.171C14.2261 211.425 12.5716 211.69 11.7264 210.649L6.01701 203.618C5.17173 202.577 5.76969 201.011 7.0933 200.798L16.0325 199.366Z" fill="#D9D9D9"/>
<path d="M298.978 153.012C298.647 151.712 299.846 150.541 301.136 150.904L309.852 153.355C311.142 153.718 311.556 155.343 310.597 156.28L304.118 162.608C303.159 163.544 301.546 163.091 301.215 161.791L298.978 153.012Z" fill="#D9D9D9"/>
<path d="M136.87 8.42371C137.385 6.29028 140.419 6.29027 140.934 8.42371L142.667 15.6084C142.851 16.3706 143.446 16.9659 144.208 17.15L151.394 18.8858C153.526 19.401 153.526 22.4342 151.394 22.9494L144.208 24.6852C143.446 24.8693 142.851 25.4645 142.667 26.2268L140.934 33.4115C140.419 35.5449 137.385 35.5449 136.87 33.4115L135.137 26.2268C134.953 25.4645 134.358 24.8693 133.596 24.6852L126.411 22.9494C124.278 22.4342 124.278 19.401 126.411 18.8858L133.596 17.15C134.358 16.9659 134.953 16.3706 135.137 15.6084L136.87 8.42371Z" fill="#D9D9D9"/>
<path d="M83.8701 257.589C84.3848 255.455 87.4194 255.455 87.934 257.589L89.6671 264.773C89.8509 265.535 90.446 266.131 91.2082 266.315L98.3936 268.051C100.526 268.566 100.526 271.599 98.3936 272.114L91.2082 273.85C90.446 274.034 89.8509 274.629 89.6671 275.392L87.934 282.576C87.4194 284.71 84.3848 284.71 83.8701 282.576L82.1371 275.392C81.9532 274.629 81.3582 274.034 80.596 273.85L73.4105 272.114C71.278 271.599 71.278 268.566 73.4105 268.051L80.596 266.315C81.3582 266.131 81.9532 265.535 82.1371 264.773L83.8701 257.589Z" fill="#D9D9D9"/>
</svg>
