<svg viewBox="0 0 14 10" fill="none" xmlns="http://www.w3.org/2000/svg">
<path d="M5.36667 8.43333C5.36667 8.85675 5.70992 9.2 6.13333 9.2H7.66667C8.09009 9.2 8.43333 8.85675 8.43333 8.43333C8.43333 8.00992 8.09009 7.66667 7.66667 7.66667H6.13333C5.70992 7.66667 5.36667 8.00992 5.36667 8.43333ZM0.766667 0C0.343249 0 0 0.343248 0 0.766667C0 1.19008 0.343248 1.53333 0.766667 1.53333H13.0333C13.4568 1.53333 13.8 1.19008 13.8 0.766667C13.8 0.343248 13.4568 0 13.0333 0H0.766667ZM2.3 4.6C2.3 5.02342 2.64325 5.36667 3.06667 5.36667H10.7333C11.1568 5.36667 11.5 5.02342 11.5 4.6C11.5 4.17658 11.1568 3.83333 10.7333 3.83333H3.06667C2.64325 3.83333 2.3 4.17658 2.3 4.6Z" fill="currentColor"/>
</svg>
